<svg width="103" height="102" viewBox="0 0 103 102" fill="none" xmlns="http://www.w3.org/2000/svg">
<g filter="url(#filter0_d_101_25)">
<g filter="url(#filter1_d_101_25)">
<rect x="4.1" y="0.1" width="94.8" height="93.8" rx="18.9" fill="url(#paint0_linear_101_25)" stroke="black" stroke-width="0.2"/>
</g>
<path d="M13.7816 58C13.5016 58 13.2816 57.93 13.1216 57.79C12.9616 57.63 12.8816 57.45 12.8816 57.25V36.85C12.8816 36.59 12.9716 36.4 13.1516 36.28C13.3516 36.14 13.5616 36.07 13.7816 36.07H18.7016C19.8216 36.07 20.8416 36.2 21.7616 36.46C22.7016 36.72 23.4416 37.22 23.9816 37.96C24.5416 38.7 24.8216 39.77 24.8216 41.17C24.8216 42.43 24.5816 43.49 24.1016 44.35C23.6416 45.19 23.0316 45.78 22.2716 46.12C22.8916 46.36 23.4316 46.69 23.8916 47.11C24.3516 47.53 24.7116 48.07 24.9716 48.73C25.2316 49.39 25.3616 50.24 25.3616 51.28V51.82C25.3616 53.34 25.1016 54.55 24.5816 55.45C24.0616 56.35 23.3516 57 22.4516 57.4C21.5516 57.8 20.5516 58 19.4516 58H13.7816ZM14.8616 56.17H19.1816C20.4816 56.17 21.5016 55.82 22.2416 55.12C23.0016 54.4 23.3816 53.27 23.3816 51.73V51.22C23.3816 49.66 23.0016 48.57 22.2416 47.95C21.5016 47.31 20.4816 46.99 19.1816 46.99H14.8616V56.17ZM14.8616 45.25H18.7616C20.1616 45.25 21.1916 44.96 21.8516 44.38C22.5116 43.8 22.8416 42.8 22.8416 41.38C22.8416 40.44 22.6616 39.72 22.3016 39.22C21.9416 38.72 21.4516 38.38 20.8316 38.2C20.2116 38 19.4816 37.9 18.6416 37.9H14.8616V45.25ZM34.5441 58.21C33.2841 58.21 32.1641 57.97 31.1841 57.49C30.2241 57.01 29.4641 56.35 28.9041 55.51C28.3641 54.65 28.0941 53.65 28.0941 52.51V49.18C28.0941 48.18 28.3541 47.26 28.8741 46.42C29.3941 45.56 30.0841 44.88 30.9441 44.38C31.8241 43.88 32.7841 43.63 33.8241 43.63C34.8241 43.63 35.7441 43.87 36.5841 44.35C37.4441 44.81 38.1341 45.45 38.6541 46.27C39.1741 47.09 39.4341 48.04 39.4341 49.12C39.4341 49.88 39.3041 50.43 39.0441 50.77C38.7841 51.11 38.4541 51.32 38.0541 51.4C37.6741 51.46 37.2641 51.49 36.8241 51.49H30.0441V52.6C30.0441 53.8 30.4741 54.75 31.3341 55.45C32.1941 56.15 33.2841 56.5 34.6041 56.5C35.4041 56.5 36.0241 56.4 36.4641 56.2C36.9041 56 37.2441 55.8 37.4841 55.6C37.7441 55.4 37.9841 55.3 38.2041 55.3C38.3641 55.3 38.5041 55.36 38.6241 55.48C38.7641 55.58 38.8641 55.7 38.9241 55.84C39.0041 55.98 39.0441 56.11 39.0441 56.23C39.0441 56.45 38.8641 56.72 38.5041 57.04C38.1441 57.36 37.6241 57.64 36.9441 57.88C36.2641 58.1 35.4641 58.21 34.5441 58.21ZM30.0441 50.05H36.0441C36.6441 50.05 37.0441 49.99 37.2441 49.87C37.4441 49.73 37.5441 49.45 37.5441 49.03C37.5441 48.39 37.3841 47.79 37.0641 47.23C36.7441 46.65 36.3041 46.18 35.7441 45.82C35.1841 45.44 34.5341 45.25 33.7941 45.25C33.1141 45.25 32.4841 45.42 31.9041 45.76C31.3441 46.1 30.8941 46.54 30.5541 47.08C30.2141 47.62 30.0441 48.23 30.0441 48.91V50.05ZM45.4944 58.21C44.3544 58.21 43.3844 57.89 42.5844 57.25C41.8044 56.59 41.4144 55.59 41.4144 54.25C41.4144 53.15 41.7044 52.31 42.2844 51.73C42.8844 51.13 43.7044 50.72 44.7444 50.5C45.8044 50.26 47.0244 50.14 48.4044 50.14H49.9344V49.45C49.9344 48.79 49.8144 48.15 49.5744 47.53C49.3544 46.89 48.9844 46.37 48.4644 45.97C47.9644 45.55 47.2744 45.34 46.3944 45.34C45.7344 45.34 45.1944 45.41 44.7744 45.55C44.3544 45.69 44.0244 45.84 43.7844 46C43.5444 46.14 43.3444 46.21 43.1844 46.21C42.9444 46.21 42.7444 46.09 42.5844 45.85C42.4444 45.61 42.3744 45.39 42.3744 45.19C42.3744 44.91 42.5844 44.66 43.0044 44.44C43.4244 44.2 43.9444 44.01 44.5644 43.87C45.2044 43.71 45.8344 43.63 46.4544 43.63C47.7944 43.63 48.8544 43.91 49.6344 44.47C50.4344 45.01 51.0044 45.72 51.3444 46.6C51.7044 47.48 51.8844 48.42 51.8844 49.42V57.22C51.8844 57.44 51.7944 57.63 51.6144 57.79C51.4544 57.93 51.2244 58 50.9244 58C50.6844 58 50.4644 57.93 50.2644 57.79C50.0844 57.63 49.9944 57.44 49.9944 57.22V55.9C49.4944 56.5 48.8744 57.04 48.1344 57.52C47.3944 57.98 46.5144 58.21 45.4944 58.21ZM45.9744 56.56C46.6344 56.56 47.2644 56.39 47.8644 56.05C48.4644 55.71 48.9544 55.3 49.3344 54.82C49.7344 54.32 49.9344 53.85 49.9344 53.41V51.49H48.6744C47.7744 51.49 46.9144 51.55 46.0944 51.67C45.2944 51.77 44.6344 52 44.1144 52.36C43.6144 52.72 43.3644 53.29 43.3644 54.07C43.3644 54.93 43.6144 55.56 44.1144 55.96C44.6344 56.36 45.2544 56.56 45.9744 56.56ZM60.2087 58C58.6687 58 57.4887 57.65 56.6687 56.95C55.8487 56.25 55.4387 55.13 55.4387 53.59V37.81C55.4387 37.57 55.5387 37.39 55.7387 37.27C55.9587 37.13 56.1787 37.06 56.3987 37.06C56.6587 37.06 56.8887 37.13 57.0887 37.27C57.2887 37.39 57.3887 37.57 57.3887 37.81V43.81H61.2887C61.4887 43.81 61.6487 43.89 61.7687 44.05C61.8887 44.21 61.9487 44.4 61.9487 44.62C61.9487 44.84 61.8887 45.03 61.7687 45.19C61.6487 45.35 61.4887 45.43 61.2887 45.43H57.3887V53.59C57.3887 54.57 57.5987 55.26 58.0187 55.66C58.4387 56.04 59.1687 56.23 60.2087 56.23H61.0487C61.3287 56.23 61.5387 56.32 61.6787 56.5C61.8387 56.66 61.9187 56.86 61.9187 57.1C61.9187 57.34 61.8387 57.55 61.6787 57.73C61.5387 57.91 61.3287 58 61.0487 58H60.2087ZM69.2405 58.18C67.9605 58.18 66.8505 57.96 65.9105 57.52C64.9705 57.06 64.2405 56.43 63.7205 55.63C63.2005 54.83 62.9405 53.92 62.9405 52.9C62.9405 52.5 63.0205 52.23 63.1805 52.09C63.3605 51.95 63.6105 51.88 63.9305 51.88C64.1705 51.88 64.3905 51.94 64.5905 52.06C64.8105 52.18 64.9205 52.38 64.9205 52.66C64.9405 53.4 65.1205 54.05 65.4605 54.61C65.8005 55.17 66.2905 55.6 66.9305 55.9C67.5705 56.2 68.3205 56.35 69.1805 56.35C70.5205 56.35 71.5605 55.98 72.3005 55.24C73.0605 54.48 73.4405 53.32 73.4405 51.76V37.9H69.2105C68.9905 37.9 68.8105 37.81 68.6705 37.63C68.5505 37.43 68.4905 37.21 68.4905 36.97C68.4905 36.75 68.5405 36.55 68.6405 36.37C68.7605 36.17 68.9505 36.07 69.2105 36.07H74.5205C74.7405 36.07 74.9405 36.14 75.1205 36.28C75.3205 36.4 75.4205 36.59 75.4205 36.85V51.76C75.4205 53.32 75.1405 54.57 74.5805 55.51C74.0405 56.45 73.3005 57.13 72.3605 57.55C71.4405 57.97 70.4005 58.18 69.2405 58.18ZM84.8042 58.21C83.5242 58.21 82.4242 58.02 81.5042 57.64C80.5842 57.24 79.8742 56.79 79.3742 56.29C78.8942 55.77 78.6542 55.33 78.6542 54.97C78.6542 54.81 78.6942 54.64 78.7742 54.46C78.8742 54.28 78.9942 54.14 79.1342 54.04C79.2742 53.92 79.4142 53.86 79.5542 53.86C79.7542 53.86 79.9542 53.99 80.1542 54.25C80.3742 54.49 80.6542 54.78 80.9942 55.12C81.3542 55.44 81.8242 55.73 82.4042 55.99C82.9842 56.23 83.7442 56.35 84.6842 56.35C85.6242 56.35 86.4242 56.2 87.0842 55.9C87.7442 55.58 88.2542 55.12 88.6142 54.52C88.9742 53.9 89.1542 53.13 89.1542 52.21C89.1542 51.25 88.9742 50.48 88.6142 49.9C88.2542 49.32 87.7742 48.84 87.1742 48.46C86.5942 48.08 85.9542 47.76 85.2542 47.5C84.5542 47.24 83.8442 46.97 83.1242 46.69C82.4242 46.41 81.7742 46.07 81.1742 45.67C80.5742 45.25 80.0942 44.71 79.7342 44.05C79.3742 43.37 79.1942 42.51 79.1942 41.47C79.1942 40.39 79.3942 39.5 79.7942 38.8C80.1942 38.08 80.7042 37.52 81.3242 37.12C81.9642 36.72 82.6542 36.44 83.3942 36.28C84.1342 36.1 84.8542 36.01 85.5542 36.01C86.1142 36.01 86.6842 36.06 87.2642 36.16C87.8642 36.24 88.4142 36.36 88.9142 36.52C89.4142 36.68 89.8142 36.88 90.1142 37.12C90.4342 37.34 90.5942 37.59 90.5942 37.87C90.5942 37.99 90.5542 38.14 90.4742 38.32C90.4142 38.48 90.3242 38.63 90.2042 38.77C90.0842 38.91 89.9242 38.98 89.7242 38.98C89.5442 38.98 89.2942 38.89 88.9742 38.71C88.6542 38.51 88.2142 38.32 87.6542 38.14C87.1142 37.94 86.4042 37.84 85.5242 37.84C84.8042 37.84 84.1042 37.94 83.4242 38.14C82.7642 38.34 82.2242 38.7 81.8042 39.22C81.3842 39.72 81.1742 40.41 81.1742 41.29C81.1742 42.09 81.3542 42.74 81.7142 43.24C82.0942 43.72 82.5742 44.11 83.1542 44.41C83.7542 44.71 84.4042 44.99 85.1042 45.25C85.8042 45.49 86.5042 45.77 87.2042 46.09C87.9242 46.39 88.5742 46.78 89.1542 47.26C89.7542 47.72 90.2342 48.33 90.5942 49.09C90.9542 49.85 91.1342 50.83 91.1342 52.03C91.1342 53.45 90.8642 54.62 90.3242 55.54C89.7842 56.44 89.0342 57.11 88.0742 57.55C87.1342 57.99 86.0442 58.21 84.8042 58.21Z" fill="white"/>
<path d="M13.1216 57.79L12.768 58.1436L12.7798 58.1553L12.7923 58.1663L13.1216 57.79ZM13.1516 36.28L13.429 36.6961L13.4383 36.6896L13.1516 36.28ZM21.7616 36.46L21.6256 36.9412L21.6283 36.9419L21.7616 36.46ZM23.9816 37.96L23.5776 38.2548L23.5829 38.2617L23.9816 37.96ZM24.1016 44.35L23.6649 44.1063L23.663 44.1098L24.1016 44.35ZM22.2716 46.12L22.0674 45.6636L20.9726 46.1533L22.0911 46.5863L22.2716 46.12ZM24.9716 48.73L25.4368 48.5467L24.9716 48.73ZM24.5816 55.45L25.0145 55.7001L24.5816 55.45ZM22.4516 57.4L22.2485 56.9431L22.4516 57.4ZM14.8616 56.17H14.3616V56.67H14.8616V56.17ZM22.2416 55.12L22.5852 55.4832L22.5854 55.483L22.2416 55.12ZM22.2416 47.95L21.9145 48.3282L21.9199 48.3329L21.9255 48.3374L22.2416 47.95ZM14.8616 46.99V46.49H14.3616V46.99H14.8616ZM14.8616 45.25H14.3616V45.75H14.8616V45.25ZM21.8516 44.38L21.5215 44.0044L21.8516 44.38ZM22.3016 39.22L22.7073 38.9278L22.7073 38.9278L22.3016 39.22ZM20.8316 38.2L20.6781 38.6759L20.6851 38.6781L20.6922 38.6802L20.8316 38.2ZM14.8616 37.9V37.4H14.3616V37.9H14.8616ZM13.7816 57.5C13.5836 57.5 13.494 57.4515 13.4508 57.4137L12.7923 58.1663C13.0691 58.4085 13.4195 58.5 13.7816 58.5V57.5ZM13.4751 57.4364C13.3955 57.3568 13.3816 57.2995 13.3816 57.25H12.3816C12.3816 57.6005 12.5277 57.9032 12.768 58.1436L13.4751 57.4364ZM13.3816 57.25V36.85H12.3816V57.25H13.3816ZM13.3816 36.85C13.3816 36.7769 13.3942 36.7407 13.4009 36.7265C13.406 36.7159 13.412 36.7073 13.4289 36.696L12.8742 35.864C12.5257 36.0963 12.3816 36.4616 12.3816 36.85H13.3816ZM13.4383 36.6896C13.5639 36.6017 13.6753 36.57 13.7816 36.57V35.57C13.4478 35.57 13.1392 35.6783 12.8648 35.8704L13.4383 36.6896ZM13.7816 36.57H18.7016V35.57H13.7816V36.57ZM18.7016 36.57C19.7832 36.57 20.7566 36.6956 21.6256 36.9412L21.8975 35.9788C20.9265 35.7044 19.8599 35.57 18.7016 35.57V36.57ZM21.6283 36.9419C22.4671 37.1739 23.1086 37.612 23.5777 38.2547L24.3855 37.6653C23.7745 36.828 22.9361 36.2661 21.8949 35.9781L21.6283 36.9419ZM23.5829 38.2617C24.0512 38.8806 24.3216 39.8263 24.3216 41.17H25.3216C25.3216 39.7137 25.0319 38.5194 24.3803 37.6583L23.5829 38.2617ZM24.3216 41.17C24.3216 42.368 24.0933 43.3388 23.665 44.1063L24.5382 44.5937C25.0698 43.6412 25.3216 42.492 25.3216 41.17H24.3216ZM23.663 44.1098C23.2472 44.8691 22.7132 45.3747 22.0674 45.6636L22.4757 46.5764C23.3499 46.1853 24.0359 45.5109 24.5401 44.5902L23.663 44.1098ZM22.0911 46.5863C22.6572 46.8054 23.1432 47.1038 23.5544 47.4792L24.2287 46.7408C23.7199 46.2762 23.1259 45.9146 22.4521 45.6537L22.0911 46.5863ZM23.5544 47.4792C23.9508 47.8411 24.2704 48.3143 24.5064 48.9133L25.4368 48.5467C25.1527 47.8257 24.7524 47.2189 24.2287 46.7408L23.5544 47.4792ZM24.5064 48.9133C24.7353 49.4944 24.8616 50.2761 24.8616 51.28H25.8616C25.8616 50.2039 25.7278 49.2856 25.4368 48.5467L24.5064 48.9133ZM24.8616 51.28V51.82H25.8616V51.28H24.8616ZM24.8616 51.82C24.8616 53.2901 24.609 54.4031 24.1486 55.1999L25.0145 55.7001C25.5942 54.6969 25.8616 53.3899 25.8616 51.82H24.8616ZM24.1486 55.1999C23.6784 56.0138 23.0464 56.5885 22.2485 56.9431L22.6546 57.8569C23.6567 57.4115 24.4448 56.6862 25.0145 55.7001L24.1486 55.1999ZM22.2485 56.9431C21.4195 57.3115 20.4898 57.5 19.4516 57.5V58.5C20.6133 58.5 21.6836 58.2885 22.6546 57.8569L22.2485 56.9431ZM19.4516 57.5H13.7816V58.5H19.4516V57.5ZM14.8616 56.67H19.1816V55.67H14.8616V56.67ZM19.1816 56.67C20.5726 56.67 21.7287 56.2934 22.5852 55.4832L21.898 54.7568C21.2744 55.3466 20.3905 55.67 19.1816 55.67V56.67ZM22.5854 55.483C23.4841 54.6316 23.8816 53.3424 23.8816 51.73H22.8816C22.8816 53.1976 22.5191 54.1684 21.8977 54.757L22.5854 55.483ZM23.8816 51.73V51.22H22.8816V51.73H23.8816ZM23.8816 51.22C23.8816 49.5982 23.4886 48.322 22.5576 47.5626L21.9255 48.3374C22.5146 48.818 22.8816 49.7218 22.8816 51.22H23.8816ZM22.5686 47.5718C21.7115 46.8305 20.5617 46.49 19.1816 46.49V47.49C20.4014 47.49 21.2916 47.7895 21.9145 48.3282L22.5686 47.5718ZM19.1816 46.49H14.8616V47.49H19.1816V46.49ZM14.3616 46.99V56.17H15.3616V46.99H14.3616ZM14.8616 45.75H18.7616V44.75H14.8616V45.75ZM18.7616 45.75C20.2148 45.75 21.3896 45.4516 22.1816 44.7556L21.5215 44.0044C20.9935 44.4684 20.1083 44.75 18.7616 44.75V45.75ZM22.1816 44.7556C23.001 44.0355 23.3416 42.8572 23.3416 41.38H22.3416C22.3416 42.7428 22.0221 43.5645 21.5215 44.0044L22.1816 44.7556ZM23.3416 41.38C23.3416 40.3869 23.1532 39.5471 22.7073 38.9278L21.8958 39.5122C22.17 39.8929 22.3416 40.4931 22.3416 41.38H23.3416ZM22.7073 38.9278C22.2788 38.3326 21.6927 37.9294 20.971 37.7198L20.6922 38.6802C21.2104 38.8306 21.6044 39.1074 21.8958 39.5122L22.7073 38.9278ZM20.9851 37.7241C20.3035 37.5043 19.5194 37.4 18.6416 37.4V38.4C19.4437 38.4 20.1196 38.4957 20.6781 38.6759L20.9851 37.7241ZM18.6416 37.4H14.8616V38.4H18.6416V37.4ZM14.3616 37.9V45.25H15.3616V37.9H14.3616ZM31.1841 57.49L30.9605 57.9372L30.9642 57.939L31.1841 57.49ZM28.9041 55.51L28.4805 55.776L28.4881 55.7873L28.9041 55.51ZM28.8741 46.42L29.2993 46.6832L29.302 46.6787L28.8741 46.42ZM30.9441 44.38L30.6971 43.9452L30.6928 43.9477L30.9441 44.38ZM36.5841 44.35L36.336 44.7843L36.3483 44.7909L36.5841 44.35ZM38.6541 46.27L39.0764 46.0022L38.6541 46.27ZM39.0441 50.77L39.4413 51.0737H39.4413L39.0441 50.77ZM38.0541 51.4L38.1321 51.8939L38.1422 51.8923L38.1522 51.8903L38.0541 51.4ZM30.0441 51.49V50.99H29.5441V51.49H30.0441ZM31.3341 55.45L31.6498 55.0622L31.3341 55.45ZM36.4641 56.2L36.2572 55.7448L36.4641 56.2ZM37.4841 55.6L37.1793 55.2037L37.1715 55.2096L37.164 55.2159L37.4841 55.6ZM38.6241 55.48L38.2706 55.8336L38.2998 55.8628L38.3335 55.8869L38.6241 55.48ZM38.9241 55.84L38.4646 56.037L38.4758 56.0632L38.49 56.0881L38.9241 55.84ZM38.5041 57.04L38.172 56.6663L38.5041 57.04ZM36.9441 57.88L37.0981 58.3559L37.1105 58.3515L36.9441 57.88ZM30.0441 50.05H29.5441V50.55H30.0441V50.05ZM37.2441 49.87L37.5014 50.2987L37.5165 50.2897L37.5309 50.2796L37.2441 49.87ZM37.0641 47.23L36.6263 47.4716L36.63 47.4781L37.0641 47.23ZM35.7441 45.82L35.4633 46.2339L35.4738 46.2406L35.7441 45.82ZM31.9041 45.76L31.6513 45.3286L31.6447 45.3326L31.9041 45.76ZM30.5541 47.08L30.131 46.8136L30.5541 47.08ZM34.5441 57.71C33.3486 57.71 32.3058 57.4826 31.4041 57.041L30.9642 57.939C32.0225 58.4574 33.2197 58.71 34.5441 58.71V57.71ZM31.4077 57.0428C30.5205 56.5992 29.8288 55.9957 29.3202 55.2327L28.4881 55.7873C29.0994 56.7043 29.9278 57.4208 30.9605 57.9372L31.4077 57.0428ZM29.3276 55.2441C28.8436 54.4733 28.5941 53.5678 28.5941 52.51H27.5941C27.5941 53.7322 27.8847 54.8267 28.4807 55.7759L29.3276 55.2441ZM28.5941 52.51V49.18H27.5941V52.51H28.5941ZM28.5941 49.18C28.5941 48.2718 28.8288 47.4431 29.2993 46.6832L28.449 46.1568C27.8794 47.0769 27.5941 48.0882 27.5941 49.18H28.5941ZM29.302 46.6787C29.7791 45.8897 30.4087 45.2697 31.1955 44.8123L30.6928 43.9477C29.7596 44.4903 29.0092 45.2303 28.4463 46.1613L29.302 46.6787ZM31.1911 44.8147C31.9937 44.3587 32.8682 44.13 33.8241 44.13V43.13C32.7 43.13 31.6546 43.4013 30.6971 43.9453L31.1911 44.8147ZM33.8241 44.13C34.7402 44.13 35.5742 44.3488 36.3361 44.7841L36.8322 43.9159C35.9141 43.3912 34.9081 43.13 33.8241 43.13V44.13ZM36.3483 44.7909C37.1326 45.2104 37.7583 45.7909 38.2319 46.5378L39.0764 46.0022C38.51 45.1091 37.7556 44.4096 36.82 43.9091L36.3483 44.7909ZM38.2319 46.5378C38.6955 47.2689 38.9341 48.1238 38.9341 49.12H39.9341C39.9341 47.9562 39.6528 46.9111 39.0764 46.0022L38.2319 46.5378ZM38.9341 49.12C38.9341 49.8457 38.8056 50.2588 38.647 50.4663L39.4413 51.0737C39.8027 50.6012 39.9341 49.9143 39.9341 49.12H38.9341ZM38.647 50.4663C38.4567 50.715 38.2308 50.8548 37.9561 50.9097L38.1522 51.8903C38.6775 51.7852 39.1115 51.505 39.4413 51.0737L38.647 50.4663ZM37.9762 50.9061C37.6253 50.9615 37.2417 50.99 36.8241 50.99V51.99C37.2866 51.99 37.723 51.9585 38.1321 51.8939L37.9762 50.9061ZM36.8241 50.99H30.0441V51.99H36.8241V50.99ZM29.5441 51.49V52.6H30.5441V51.49H29.5441ZM29.5441 52.6C29.5441 53.9363 30.0313 55.0343 31.0185 55.8378L31.6498 55.0622C30.917 54.4657 30.5441 53.6637 30.5441 52.6H29.5441ZM31.0185 55.8378C31.9839 56.6236 33.192 57 34.6041 57V56C33.3763 56 32.4044 55.6764 31.6498 55.0622L31.0185 55.8378ZM34.6041 57C35.4346 57 36.137 56.8979 36.671 56.6552L36.2572 55.7448C35.9113 55.9021 35.3737 56 34.6041 56V57ZM36.671 56.6552C37.1321 56.4456 37.5165 56.2239 37.8042 55.9841L37.164 55.2159C36.9718 55.3761 36.6761 55.5544 36.2572 55.7448L36.671 56.6552ZM37.789 55.9963C38.0026 55.832 38.1369 55.8 38.2041 55.8V54.8C37.8314 54.8 37.4857 54.968 37.1793 55.2037L37.789 55.9963ZM38.2041 55.8C38.2229 55.8 38.238 55.801 38.2706 55.8336L38.9777 55.1264C38.7702 54.919 38.5054 54.8 38.2041 54.8V55.8ZM38.3335 55.8869C38.4089 55.9407 38.4451 55.9916 38.4646 56.037L39.3837 55.643C39.2832 55.4084 39.1193 55.2193 38.9148 55.0731L38.3335 55.8869ZM38.49 56.0881C38.5411 56.1775 38.5441 56.2219 38.5441 56.23H39.5441C39.5441 55.9981 39.4671 55.7825 39.3583 55.5919L38.49 56.0881ZM38.5441 56.23C38.5441 56.2048 38.5529 56.2304 38.4931 56.3202C38.4353 56.4069 38.3338 56.5224 38.172 56.6663L38.8363 57.4137C39.0344 57.2376 39.203 57.0581 39.3252 56.8748C39.4454 56.6946 39.5441 56.4752 39.5441 56.23H38.5441ZM38.172 56.6663C37.8782 56.9274 37.4241 57.1804 36.7777 57.4085L37.1105 58.3515C37.8241 58.0996 38.4101 57.7926 38.8363 57.4137L38.172 56.6663ZM36.7902 57.4043C36.1719 57.6043 35.4261 57.71 34.5441 57.71V58.71C35.5022 58.71 36.3564 58.5957 37.0981 58.3557L36.7902 57.4043ZM30.0441 50.55H36.0441V49.55H30.0441V50.55ZM36.0441 50.55C36.3583 50.55 36.6351 50.5345 36.8683 50.4995C37.0925 50.4658 37.3184 50.4085 37.5014 50.2987L36.9869 49.4413C36.9699 49.4515 36.8958 49.4842 36.72 49.5105C36.5532 49.5355 36.33 49.55 36.0441 49.55V50.55ZM37.5309 50.2796C37.9376 49.9949 38.0441 49.497 38.0441 49.03H37.0441C37.0441 49.2044 37.0228 49.3181 36.9983 49.3868C36.9865 49.4197 36.9754 49.4385 36.9685 49.4481C36.9621 49.4571 36.9583 49.4598 36.9574 49.4604L37.5309 50.2796ZM38.0441 49.03C38.0441 48.3023 37.8611 47.6169 37.4983 46.9819L36.63 47.4781C36.9072 47.9631 37.0441 48.4777 37.0441 49.03H38.0441ZM37.5019 46.9885C37.1416 46.3354 36.6439 45.804 36.0145 45.3994L35.4738 46.2406C35.9643 46.556 36.3466 46.9646 36.6264 47.4715L37.5019 46.9885ZM36.0249 45.4063C35.3743 44.9648 34.6245 44.75 33.7941 44.75V45.75C34.4438 45.75 34.994 45.9152 35.4634 46.2337L36.0249 45.4063ZM33.7941 44.75C33.0263 44.75 32.3089 44.9432 31.6513 45.3286L32.157 46.1913C32.6594 45.8968 33.202 45.75 33.7941 45.75V44.75ZM31.6447 45.3326C31.0202 45.7117 30.5135 46.2062 30.131 46.8136L30.9773 47.3464C31.2748 46.8738 31.6681 46.4883 32.1636 46.1874L31.6447 45.3326ZM30.131 46.8136C29.7375 47.4387 29.5441 48.1422 29.5441 48.91H30.5441C30.5441 48.3178 30.6908 47.8013 30.9773 47.3464L30.131 46.8136ZM29.5441 48.91V50.05H30.5441V48.91H29.5441ZM42.5844 57.25L42.2613 57.6318L42.272 57.6404L42.5844 57.25ZM42.2844 51.73L42.6379 52.0836L42.2844 51.73ZM44.7444 50.5L44.8479 50.9892L44.8548 50.9877L44.7444 50.5ZM49.9344 50.14V50.64H50.4344V50.14H49.9344ZM49.5744 47.53L49.1015 47.6925L49.1046 47.7016L49.1081 47.7105L49.5744 47.53ZM48.4644 45.97L48.1428 46.3529L48.151 46.3598L48.1595 46.3663L48.4644 45.97ZM43.7844 46L44.0363 46.4319L44.0493 46.4243L44.0617 46.416L43.7844 46ZM42.5844 45.85L42.1525 46.1019L42.16 46.1149L42.1684 46.1273L42.5844 45.85ZM43.0044 44.44L43.2364 44.8829L43.2445 44.8787L43.2524 44.8741L43.0044 44.44ZM44.5644 43.87L44.6745 44.3578L44.6856 44.3551L44.5644 43.87ZM49.6344 44.47L49.3428 44.8762L49.3486 44.8804L49.3546 44.8844L49.6344 44.47ZM51.3444 46.6L50.8779 46.7802L50.8816 46.7893L51.3444 46.6ZM51.6144 57.79L51.9436 58.1663L51.9466 58.1637L51.6144 57.79ZM50.2644 57.79L49.9322 58.1637L49.9539 58.183L49.9776 58.1996L50.2644 57.79ZM49.9944 55.9H50.4944V54.519L49.6103 55.5799L49.9944 55.9ZM48.1344 57.52L48.3984 57.9447L48.4065 57.9395L48.1344 57.52ZM47.8644 56.05L47.6179 55.615L47.8644 56.05ZM49.3344 54.82L48.9439 54.5076L48.9424 54.5096L49.3344 54.82ZM49.9344 51.49H50.4344V50.99H49.9344V51.49ZM46.0944 51.67L46.1564 52.1662L46.1668 52.1647L46.0944 51.67ZM44.1144 52.36L43.8297 51.9488L43.8222 51.9542L44.1144 52.36ZM44.1144 55.96L43.802 56.3505L43.8095 56.3563L44.1144 55.96ZM45.4944 57.71C44.4543 57.71 43.598 57.4206 42.8967 56.8596L42.272 57.6404C43.1707 58.3594 44.2544 58.71 45.4944 58.71V57.71ZM42.9073 56.8683C42.2723 56.3309 41.9144 55.4918 41.9144 54.25H40.9144C40.9144 55.6882 41.3365 56.8491 42.2614 57.6317L42.9073 56.8683ZM41.9144 54.25C41.9144 53.236 42.1802 52.5413 42.6379 52.0836L41.9308 51.3764C41.2286 52.0787 40.9144 53.064 40.9144 54.25H41.9144ZM42.6379 52.0836C43.154 51.5675 43.8787 51.1942 44.8479 50.9892L44.6409 50.0108C43.5301 50.2458 42.6147 50.6925 41.9308 51.3764L42.6379 52.0836ZM44.8548 50.9877C45.8704 50.7577 47.0521 50.64 48.4044 50.64V49.64C46.9967 49.64 45.7384 49.7623 44.634 50.0123L44.8548 50.9877ZM48.4044 50.64H49.9344V49.64H48.4044V50.64ZM50.4344 50.14V49.45H49.4344V50.14H50.4344ZM50.4344 49.45C50.4344 48.7278 50.3028 48.0266 50.0407 47.3495L49.1081 47.7105C49.326 48.2734 49.4344 48.8522 49.4344 49.45H50.4344ZM50.0472 47.3675C49.7964 46.6379 49.3695 46.0354 48.7692 45.5737L48.1595 46.3663C48.5993 46.7046 48.9123 47.1421 49.1015 47.6925L50.0472 47.3675ZM48.786 45.5871C48.1688 45.0687 47.351 44.84 46.3944 44.84V45.84C47.1978 45.84 47.76 46.0313 48.1428 46.3529L48.786 45.5871ZM46.3944 44.84C45.7043 44.84 45.1057 44.9125 44.6163 45.0757L44.9325 46.0243C45.283 45.9075 45.7644 45.84 46.3944 45.84V44.84ZM44.6163 45.0757C44.174 45.2231 43.7981 45.3899 43.507 45.584L44.0617 46.416C44.2506 46.2901 44.5347 46.1569 44.9325 46.0243L44.6163 45.0757ZM43.5324 45.5681C43.3198 45.6922 43.2125 45.71 43.1844 45.71V46.71C43.4763 46.71 43.769 46.5878 44.0363 46.4319L43.5324 45.5681ZM43.1844 45.71C43.1469 45.71 43.0892 45.7058 43.0004 45.5726L42.1684 46.1273C42.3996 46.4742 42.7418 46.71 43.1844 46.71V45.71ZM43.0163 45.5981C42.9043 45.4061 42.8744 45.2736 42.8744 45.19H41.8744C41.8744 45.5064 41.9844 45.8139 42.1525 46.1019L43.0163 45.5981ZM42.8744 45.19C42.8744 45.1867 42.8722 45.1648 42.9147 45.1141C42.9634 45.0562 43.0602 44.9752 43.2364 44.8829L42.7724 43.9971C42.3074 44.2406 41.8744 44.6194 41.8744 45.19H42.8744ZM43.2524 44.8741C43.6183 44.6651 44.0886 44.49 44.6745 44.3577L44.4542 43.3823C43.8001 43.53 43.2304 43.7349 42.7563 44.0059L43.2524 44.8741ZM44.6856 44.3551C45.2885 44.2044 45.8778 44.13 46.4544 44.13V43.13C45.791 43.13 45.1202 43.2156 44.4431 43.3849L44.6856 44.3551ZM46.4544 44.13C47.73 44.13 48.6755 44.3971 49.3428 44.8762L49.926 44.0638C49.0333 43.4229 47.8588 43.13 46.4544 43.13V44.13ZM49.3546 44.8844C50.072 45.3687 50.5757 45.9978 50.878 46.7802L51.8108 46.4198C51.4331 45.4422 50.7967 44.6513 49.9141 44.0556L49.3546 44.8844ZM50.8816 46.7893C51.2158 47.6061 51.3844 48.4815 51.3844 49.42H52.3844C52.3844 48.3585 52.193 47.3539 51.8071 46.4107L50.8816 46.7893ZM51.3844 49.42V57.22H52.3844V49.42H51.3844ZM51.3844 57.22C51.3844 57.2827 51.3668 57.3411 51.2822 57.4163L51.9466 58.1637C52.222 57.9189 52.3844 57.5973 52.3844 57.22H51.3844ZM51.2851 57.4137C51.2476 57.4465 51.1527 57.5 50.9244 57.5V58.5C51.2961 58.5 51.6611 58.4135 51.9436 58.1663L51.2851 57.4137ZM50.9244 57.5C50.7888 57.5 50.6686 57.4626 50.5511 57.3804L49.9776 58.1996C50.2601 58.3974 50.5799 58.5 50.9244 58.5V57.5ZM50.5966 57.4163C50.512 57.3411 50.4944 57.2827 50.4944 57.22H49.4944C49.4944 57.5973 49.6568 57.9189 49.9322 58.1637L50.5966 57.4163ZM50.4944 57.22V55.9H49.4944V57.22H50.4944ZM49.6103 55.5799C49.1463 56.1367 48.5655 56.6444 47.8623 57.1005L48.4065 57.9395C49.1832 57.4356 49.8425 56.8633 50.3785 56.2201L49.6103 55.5799ZM47.8704 57.0954C47.2223 57.4982 46.4372 57.71 45.4944 57.71V58.71C46.5915 58.71 47.5664 58.4618 48.3983 57.9446L47.8704 57.0954ZM45.9744 57.06C46.7247 57.06 47.4392 56.8656 48.1109 56.485L47.6179 55.615C47.0895 55.9144 46.544 56.06 45.9744 56.06V57.06ZM48.1109 56.485C48.7599 56.1172 49.3016 55.6669 49.7264 55.1304L48.9424 54.5096C48.6071 54.9331 48.1688 55.3028 47.6179 55.615L48.1109 56.485ZM49.7248 55.1323C50.1644 54.5828 50.4344 54.0051 50.4344 53.41H49.4344C49.4344 53.6949 49.3043 54.0572 48.9439 54.5077L49.7248 55.1323ZM50.4344 53.41V51.49H49.4344V53.41H50.4344ZM49.9344 50.99H48.6744V51.99H49.9344V50.99ZM48.6744 50.99C47.7522 50.99 46.8679 51.0515 46.022 51.1753L46.1668 52.1647C46.9609 52.0485 47.7966 51.99 48.6744 51.99V50.99ZM46.0324 51.1739C45.1738 51.2812 44.4317 51.5322 43.8298 51.9489L44.399 52.7711C44.837 52.4678 45.415 52.2588 46.1564 52.1661L46.0324 51.1739ZM43.8222 51.9542C43.1574 52.4329 42.8644 53.1768 42.8644 54.07H43.8644C43.8644 53.4032 44.0714 53.0071 44.4065 52.7658L43.8222 51.9542ZM42.8644 54.07C42.8644 55.0262 43.1458 55.8255 43.802 56.3504L44.4267 55.5696C44.0829 55.2945 43.8644 54.8338 43.8644 54.07H42.8644ZM43.8095 56.3563C44.4255 56.8302 45.1555 57.06 45.9744 57.06V56.06C45.3533 56.06 44.8432 55.8898 44.4192 55.5637L43.8095 56.3563ZM55.7387 37.27L55.996 37.6989L56.0071 37.6918L55.7387 37.27ZM57.0887 37.27L56.8019 37.6796L56.8163 37.6897L56.8314 37.6987L57.0887 37.27ZM57.3887 43.81H56.8887V44.31H57.3887V43.81ZM61.7687 44.05L62.1687 43.75L62.1687 43.75L61.7687 44.05ZM61.7687 45.19L62.1687 45.49L62.1687 45.49L61.7687 45.19ZM57.3887 45.43V44.93H56.8887V45.43H57.3887ZM58.0187 55.66L57.6737 56.0222L57.6832 56.0308L58.0187 55.66ZM61.6787 56.5L61.284 56.807L61.3031 56.8315L61.3251 56.8536L61.6787 56.5ZM61.6787 57.73L61.305 57.3978L61.2941 57.4101L61.284 57.423L61.6787 57.73ZM60.2087 57.5C58.7375 57.5 57.6908 57.1651 56.9933 56.5697L56.344 57.3303C57.2865 58.1349 58.5999 58.5 60.2087 58.5V57.5ZM56.9933 56.5697C56.3259 56 55.9387 55.0485 55.9387 53.59H54.9387C54.9387 55.2115 55.3715 56.5 56.344 57.3303L56.9933 56.5697ZM55.9387 53.59V37.81H54.9387V53.59H55.9387ZM55.9387 37.81C55.9387 37.7608 55.9484 37.7421 55.9508 37.7378C55.9527 37.7342 55.961 37.7197 55.9959 37.6987L55.4814 36.8413C55.1255 37.0548 54.9387 37.4006 54.9387 37.81H55.9387ZM56.0071 37.6918C56.162 37.5933 56.2902 37.56 56.3987 37.56V36.56C56.0672 36.56 55.7554 36.6667 55.4702 36.8482L56.0071 37.6918ZM56.3987 37.56C56.5631 37.56 56.6916 37.6024 56.8019 37.6796L57.3754 36.8604C57.0858 36.6576 56.7542 36.56 56.3987 36.56V37.56ZM56.8314 37.6987C56.8664 37.7197 56.8746 37.7342 56.8766 37.7378C56.879 37.7421 56.8887 37.7608 56.8887 37.81H57.8887C57.8887 37.4006 57.7018 37.0548 57.3459 36.8413L56.8314 37.6987ZM56.8887 37.81V43.81H57.8887V37.81H56.8887ZM57.3887 44.31H61.2887V43.31H57.3887V44.31ZM61.2887 44.31C61.3203 44.31 61.3323 44.3158 61.3351 44.3172C61.3378 44.3186 61.3497 44.3247 61.3687 44.35L62.1687 43.75C61.9542 43.4641 61.646 43.31 61.2887 43.31V44.31ZM61.3687 44.35C61.4172 44.4147 61.4487 44.4968 61.4487 44.62H62.4487C62.4487 44.3032 62.3601 44.0053 62.1687 43.75L61.3687 44.35ZM61.4487 44.62C61.4487 44.7432 61.4172 44.8253 61.3687 44.89L62.1687 45.49C62.3601 45.2347 62.4487 44.9368 62.4487 44.62H61.4487ZM61.3687 44.89C61.3497 44.9153 61.3378 44.9214 61.3351 44.9228C61.3323 44.9242 61.3203 44.93 61.2887 44.93V45.93C61.646 45.93 61.9542 45.7759 62.1687 45.49L61.3687 44.89ZM61.2887 44.93H57.3887V45.93H61.2887V44.93ZM56.8887 45.43V53.59H57.8887V45.43H56.8887ZM56.8887 53.59C56.8887 54.6175 57.1047 55.48 57.6738 56.0221L58.3635 55.2979C58.0926 55.04 57.8887 54.5225 57.8887 53.59H56.8887ZM57.6832 56.0308C58.2461 56.5401 59.1372 56.73 60.2087 56.73V55.73C59.2002 55.73 58.6312 55.5399 58.3541 55.2892L57.6832 56.0308ZM60.2087 56.73H61.0487V55.73H60.2087V56.73ZM61.0487 56.73C61.2134 56.73 61.2603 56.7765 61.284 56.807L62.0733 56.193C61.817 55.8635 61.444 55.73 61.0487 55.73V56.73ZM61.3251 56.8536C61.3852 56.9137 61.4187 56.9837 61.4187 57.1H62.4187C62.4187 56.7363 62.2921 56.4063 62.0322 56.1464L61.3251 56.8536ZM61.4187 57.1C61.4187 57.2171 61.3839 57.309 61.305 57.3978L62.0524 58.0622C62.2934 57.791 62.4187 57.4629 62.4187 57.1H61.4187ZM61.284 57.423C61.2603 57.4535 61.2134 57.5 61.0487 57.5V58.5C61.444 58.5 61.817 58.3665 62.0733 58.037L61.284 57.423ZM61.0487 57.5H60.2087V58.5H61.0487V57.5ZM65.9105 57.52L65.6907 57.9692L65.6986 57.9728L65.9105 57.52ZM63.7205 55.63L63.3013 55.9025L63.7205 55.63ZM63.1805 52.09L62.8736 51.6953L62.8622 51.7042L62.8513 51.7137L63.1805 52.09ZM64.5905 52.06L64.3333 52.4887L64.3421 52.494L64.3511 52.4989L64.5905 52.06ZM64.9205 52.66H64.4204L64.4207 52.6735L64.9205 52.66ZM65.4605 54.61L65.0332 54.8695L65.4605 54.61ZM66.9305 55.9L67.1428 55.4473L66.9305 55.9ZM72.3005 55.24L71.947 54.8864L72.3005 55.24ZM73.4405 37.9H73.9405V37.4H73.4405V37.9ZM68.6705 37.63L68.2418 37.8872L68.2573 37.9131L68.2759 37.937L68.6705 37.63ZM68.6405 36.37L68.2118 36.1128L68.2075 36.1199L68.2035 36.1272L68.6405 36.37ZM75.1205 36.28L74.8136 36.6747L74.8374 36.6932L74.8633 36.7087L75.1205 36.28ZM74.5805 55.51L74.1509 55.2541L74.147 55.2609L74.5805 55.51ZM72.3605 57.55L72.1566 57.0935L72.1529 57.0952L72.3605 57.55ZM69.2405 57.68C68.0171 57.68 66.9825 57.4697 66.1225 57.0672L65.6986 57.9728C66.7185 58.4503 67.904 58.68 69.2405 58.68V57.68ZM66.1303 57.0709C65.2634 56.6467 64.6058 56.0745 64.1398 55.3575L63.3013 55.9025C63.8753 56.7855 64.6777 57.4733 65.6908 57.9691L66.1303 57.0709ZM64.1398 55.3575C63.6762 54.6443 63.4405 53.8303 63.4405 52.9H62.4405C62.4405 54.0097 62.7249 55.0157 63.3013 55.9025L64.1398 55.3575ZM63.4405 52.9C63.4405 52.7297 63.458 52.6136 63.4799 52.5395C63.5016 52.4665 63.5206 52.4568 63.5098 52.4663L62.8513 51.7137C62.5186 52.0048 62.4405 52.4718 62.4405 52.9H63.4405ZM63.4875 52.4847C63.5505 52.4357 63.6778 52.38 63.9305 52.38V51.38C63.5433 51.38 63.1706 51.4643 62.8736 51.6953L63.4875 52.4847ZM63.9305 52.38C64.0827 52.38 64.2133 52.4168 64.3333 52.4887L64.8478 51.6313C64.5678 51.4632 64.2584 51.38 63.9305 51.38V52.38ZM64.3511 52.4989C64.3859 52.5179 64.3954 52.5327 64.3999 52.541C64.4061 52.5522 64.4205 52.5853 64.4205 52.66H65.4205C65.4205 52.2232 65.2324 51.8405 64.83 51.6211L64.3511 52.4989ZM64.4207 52.6735C64.4428 53.4889 64.6424 54.2259 65.0332 54.8695L65.8879 54.3505C65.5987 53.8741 65.4383 53.3111 65.4204 52.6465L64.4207 52.6735ZM65.0332 54.8695C65.4283 55.5204 65.9965 56.0144 66.7183 56.3527L67.1428 55.4473C66.5846 55.1856 66.1728 54.8196 65.8879 54.3505L65.0332 54.8695ZM66.7183 56.3527C67.4375 56.6899 68.2628 56.85 69.1805 56.85V55.85C68.3783 55.85 67.7035 55.7101 67.1428 55.4473L66.7183 56.3527ZM69.1805 56.85C70.6142 56.85 71.796 56.4517 72.6541 55.5936L71.947 54.8864C71.3251 55.5083 70.4269 55.85 69.1805 55.85V56.85ZM72.6541 55.5936C73.5431 54.7045 73.9405 53.3927 73.9405 51.76H72.9405C72.9405 53.2473 72.578 54.2555 71.947 54.8864L72.6541 55.5936ZM73.9405 51.76V37.9H72.9405V51.76H73.9405ZM73.4405 37.4H69.2105V38.4H73.4405V37.4ZM69.2105 37.4C69.1513 37.4 69.1145 37.3864 69.0652 37.323L68.2759 37.937C68.5066 38.2336 68.8298 38.4 69.2105 38.4V37.4ZM69.0993 37.3728C69.0273 37.2528 68.9905 37.1221 68.9905 36.97H67.9905C67.9905 37.2979 68.0738 37.6072 68.2418 37.8872L69.0993 37.3728ZM68.9905 36.97C68.9905 36.829 69.0217 36.7135 69.0776 36.6128L68.2035 36.1272C68.0594 36.3865 67.9905 36.671 67.9905 36.97H68.9905ZM69.0693 36.6272C69.0864 36.5987 69.0989 36.5912 69.1059 36.5875C69.1155 36.5824 69.1447 36.57 69.2105 36.57V35.57C68.7991 35.57 68.4339 35.7425 68.2118 36.1128L69.0693 36.6272ZM69.2105 36.57H74.5205V35.57H69.2105V36.57ZM74.5205 36.57C74.6251 36.57 74.7179 36.6003 74.8136 36.6747L75.4275 35.8853C75.1632 35.6797 74.856 35.57 74.5205 35.57V36.57ZM74.8633 36.7087C74.8918 36.7259 74.8994 36.7383 74.9031 36.7454C74.9081 36.7549 74.9205 36.7842 74.9205 36.85H75.9205C75.9205 36.4385 75.748 36.0734 75.3778 35.8513L74.8633 36.7087ZM74.9205 36.85V51.76H75.9205V36.85H74.9205ZM74.9205 51.76C74.9205 53.2662 74.6493 54.4176 74.151 55.2541L75.0101 55.7659C75.6318 54.7224 75.9205 53.3738 75.9205 51.76H74.9205ZM74.147 55.2609C73.6567 56.1144 72.9947 56.719 72.1566 57.0935L72.5645 58.0065C73.6064 57.541 74.4244 56.7856 75.0141 55.7591L74.147 55.2609ZM72.1529 57.0952C71.307 57.4813 70.3394 57.68 69.2405 57.68V58.68C70.4617 58.68 71.5741 58.4587 72.5682 58.0048L72.1529 57.0952ZM81.5042 57.64L81.3048 58.0986L81.3133 58.1021L81.5042 57.64ZM79.3742 56.29L79.0068 56.6291L79.0136 56.6365L79.0207 56.6436L79.3742 56.29ZM78.7742 54.46L78.3371 54.2172L78.3263 54.2366L78.3173 54.2569L78.7742 54.46ZM79.1342 54.04L79.4248 54.4469L79.4428 54.434L79.4596 54.4196L79.1342 54.04ZM80.1542 54.25L79.7579 54.5549L79.7711 54.572L79.7856 54.5879L80.1542 54.25ZM80.9942 55.12L80.6407 55.4736L80.6511 55.4839L80.662 55.4937L80.9942 55.12ZM82.4042 55.99L82.1997 56.4463L82.2063 56.4492L82.213 56.452L82.4042 55.99ZM87.0842 55.9L87.2912 56.3553L87.3024 56.3499L87.0842 55.9ZM88.6142 54.52L89.043 54.7773L89.0466 54.7711L88.6142 54.52ZM88.6142 49.9L89.039 49.6363L88.6142 49.9ZM87.1742 48.46L86.9002 48.8783L86.9067 48.8824L87.1742 48.46ZM85.2542 47.5L85.4283 47.0313L85.2542 47.5ZM83.1242 46.69L82.9385 47.1543L82.943 47.156L83.1242 46.69ZM81.1742 45.67L80.8874 46.0797L80.8969 46.086L81.1742 45.67ZM79.7342 44.05L79.2923 44.284L79.2953 44.2894L79.7342 44.05ZM79.7942 38.8L80.2284 39.0481L80.2313 39.0428L79.7942 38.8ZM81.3242 37.12L81.0592 36.696L81.0532 36.6999L81.3242 37.12ZM83.3942 36.28L83.4999 36.7689L83.5124 36.7658L83.3942 36.28ZM87.2642 36.16L87.1793 36.6527L87.1887 36.6544L87.1981 36.6556L87.2642 36.16ZM90.1142 37.12L89.8019 37.5104L89.816 37.5218L89.831 37.532L90.1142 37.12ZM90.4742 38.32L90.0173 38.1169L90.0113 38.1305L90.0061 38.1444L90.4742 38.32ZM90.2042 38.77L89.8246 38.4446V38.4446L90.2042 38.77ZM88.9742 38.71L88.7092 39.134L88.719 39.1401L88.7291 39.1458L88.9742 38.71ZM87.6542 38.14L87.4806 38.6089L87.4908 38.6127L87.5012 38.616L87.6542 38.14ZM83.4242 38.14L83.2831 37.6603L83.2792 37.6615L83.4242 38.14ZM81.8042 39.22L82.1871 39.5417L82.1932 39.5342L81.8042 39.22ZM81.7142 43.24L81.3084 43.5322L81.3151 43.5414L81.3222 43.5504L81.7142 43.24ZM83.1542 44.41L82.9245 44.8542L82.9306 44.8572L83.1542 44.41ZM85.1042 45.25L84.9301 45.7189L84.9421 45.723L85.1042 45.25ZM87.2042 46.09L86.9963 46.5447L87.0041 46.5483L87.0119 46.5515L87.2042 46.09ZM89.1542 47.26L88.8354 47.6452L88.8426 47.6511L88.85 47.6568L89.1542 47.26ZM90.5942 49.09L91.0461 48.876L90.5942 49.09ZM90.3242 55.54L90.753 55.7973L90.7554 55.7931L90.3242 55.54ZM88.0742 57.55L87.8659 57.0955L87.8623 57.0972L88.0742 57.55ZM84.8042 57.71C83.5718 57.71 82.54 57.5268 81.6951 57.1779L81.3133 58.1021C82.3085 58.5132 83.4766 58.71 84.8042 58.71V57.71ZM81.7036 57.1815C80.8189 56.7968 80.169 56.3777 79.7278 55.9364L79.0207 56.6436C79.5794 57.2023 80.3495 57.6832 81.3049 58.0985L81.7036 57.1815ZM79.7416 55.9509C79.2756 55.446 79.1542 55.1286 79.1542 54.97H78.1542C78.1542 55.5314 78.5128 56.094 79.0068 56.6291L79.7416 55.9509ZM79.1542 54.97C79.1542 54.8942 79.1731 54.7935 79.2311 54.6631L78.3173 54.2569C78.2153 54.4865 78.1542 54.7258 78.1542 54.97H79.1542ZM79.2113 54.7028C79.2823 54.5751 79.356 54.4961 79.4248 54.4469L78.8436 53.6331C78.6325 53.7839 78.4662 53.9849 78.3371 54.2172L79.2113 54.7028ZM79.4596 54.4196C79.4989 54.3859 79.5264 54.3709 79.5412 54.3646C79.5545 54.3589 79.5577 54.36 79.5542 54.36V53.36C79.2614 53.36 79.0103 53.4877 78.8088 53.6604L79.4596 54.4196ZM79.5542 54.36C79.5402 54.36 79.547 54.3541 79.5817 54.3767C79.6202 54.4017 79.6804 54.4541 79.7579 54.5549L80.5505 53.9451C80.3161 53.6404 79.9869 53.36 79.5542 53.36V54.36ZM79.7856 54.5879C80.0122 54.8351 80.2977 55.1306 80.6407 55.4736L81.3478 54.7664C81.0107 54.4294 80.7362 54.1449 80.5228 53.9121L79.7856 54.5879ZM80.662 55.4937C81.0701 55.8564 81.5871 56.1717 82.1997 56.4463L82.6087 55.5337C82.0613 55.2883 81.6384 55.0236 81.3264 54.7463L80.662 55.4937ZM82.213 56.452C82.876 56.7263 83.7082 56.85 84.6842 56.85V55.85C83.7803 55.85 83.0924 55.7337 82.5954 55.528L82.213 56.452ZM84.6842 56.85C85.6753 56.85 86.5499 56.6921 87.2911 56.3552L86.8773 55.4448C86.2985 55.7079 85.5732 55.85 84.6842 55.85V56.85ZM87.3024 56.3499C88.0453 55.9897 88.6305 55.4647 89.043 54.7772L88.1855 54.2628C87.8779 54.7753 87.4431 55.1703 86.8661 55.4501L87.3024 56.3499ZM89.0466 54.7711C89.4618 54.0561 89.6542 53.1937 89.6542 52.21H88.6542C88.6542 53.0663 88.4867 53.7439 88.1818 54.2689L89.0466 54.7711ZM89.6542 52.21C89.6542 51.193 89.4643 50.3214 89.039 49.6363L88.1894 50.1637C88.4842 50.6386 88.6542 51.307 88.6542 52.21H89.6542ZM89.039 49.6363C88.6376 48.9896 88.1028 48.4563 87.4417 48.0376L86.9067 48.8824C87.4456 49.2237 87.8708 49.6504 88.1894 50.1637L89.039 49.6363ZM87.4482 48.0418C86.8346 47.6397 86.1607 47.3033 85.4283 47.0313L85.0801 47.9687C85.7477 48.2167 86.3538 48.5203 86.9002 48.8782L87.4482 48.0418ZM85.4283 47.0313C84.7308 46.7722 84.0232 46.5031 83.3054 46.224L82.943 47.156C83.6653 47.4369 84.3777 47.7078 85.0801 47.9687L85.4283 47.0313ZM83.3099 46.2258C82.6406 45.958 82.0215 45.6339 81.4516 45.254L80.8969 46.086C81.5269 46.5061 82.2078 46.862 82.9385 47.1542L83.3099 46.2258ZM81.461 45.2604C80.9258 44.8858 80.4972 44.4047 80.1732 43.8106L79.2953 44.2894C79.6912 45.0153 80.2226 45.6142 80.8875 46.0796L81.461 45.2604ZM80.1761 43.8161C79.8653 43.229 79.6942 42.4558 79.6942 41.47H78.6942C78.6942 42.5642 78.8831 43.511 79.2923 44.2839L80.1761 43.8161ZM79.6942 41.47C79.6942 40.4485 79.8837 39.6511 80.2283 39.0481L79.3601 38.5519C78.9047 39.3489 78.6942 40.3315 78.6942 41.47H79.6942ZM80.2313 39.0428C80.5961 38.3862 81.0521 37.8906 81.5953 37.5401L81.0532 36.6999C80.3564 37.1494 79.7923 37.7738 79.3571 38.5572L80.2313 39.0428ZM81.5892 37.544C82.1801 37.1747 82.8162 36.9165 83.4999 36.7687L83.2886 35.7913C82.4923 35.9635 81.7484 36.2653 81.0592 36.696L81.5892 37.544ZM83.5124 36.7658C84.2171 36.5944 84.8974 36.51 85.5542 36.51V35.51C84.8111 35.51 84.0514 35.6056 83.276 35.7942L83.5124 36.7658ZM85.5542 36.51C86.0843 36.51 86.6259 36.5573 87.1793 36.6527L87.3492 35.6673C86.7425 35.5627 86.1441 35.51 85.5542 35.51V36.51ZM87.1981 36.6556C87.7732 36.7323 88.2939 36.8465 88.7618 36.9962L89.0666 36.0438C88.5346 35.8735 87.9553 35.7477 87.3303 35.6644L87.1981 36.6556ZM88.7618 36.9962C89.2236 37.144 89.5635 37.3197 89.8019 37.5104L90.4266 36.7296C90.065 36.4403 89.6048 36.216 89.0666 36.0438L88.7618 36.9962ZM89.831 37.532C90.0723 37.6979 90.0942 37.8135 90.0942 37.87H91.0942C91.0942 37.3665 90.7962 36.9821 90.3975 36.708L89.831 37.532ZM90.0942 37.87C90.0942 37.8892 90.0849 37.9649 90.0173 38.1169L90.9311 38.5231C91.0236 38.3151 91.0942 38.0908 91.0942 37.87H90.0942ZM90.0061 38.1444C89.9681 38.2455 89.9096 38.3455 89.8246 38.4446L90.5838 39.0954C90.7389 38.9145 90.8603 38.7145 90.9424 38.4956L90.0061 38.1444ZM89.8246 38.4446C89.8083 38.4636 89.7922 38.48 89.7242 38.48V39.48C90.0562 39.48 90.3601 39.3564 90.5838 39.0954L89.8246 38.4446ZM89.7242 38.48C89.6811 38.48 89.5273 38.4474 89.2194 38.2742L88.7291 39.1458C89.0612 39.3326 89.4073 39.48 89.7242 39.48V38.48ZM89.2392 38.286C88.8704 38.0555 88.3873 37.8504 87.8072 37.664L87.5012 38.616C88.0411 38.7896 88.438 38.9645 88.7092 39.134L89.2392 38.286ZM87.8279 37.6711C87.211 37.4427 86.4355 37.34 85.5242 37.34V38.34C86.3729 38.34 87.0174 38.4373 87.4806 38.6089L87.8279 37.6711ZM85.5242 37.34C84.7572 37.34 84.0097 37.4466 83.2831 37.6603L83.5653 38.6197C84.1988 38.4334 84.8512 38.34 85.5242 38.34V37.34ZM83.2792 37.6615C82.5265 37.8896 81.9003 38.3052 81.4152 38.9058L82.1932 39.5342C82.5481 39.0948 83.002 38.7904 83.5692 38.6185L83.2792 37.6615ZM81.4214 38.8984C80.9029 39.5156 80.6742 40.3334 80.6742 41.29H81.6742C81.6742 40.4866 81.8655 39.9244 82.1871 39.5416L81.4214 38.8984ZM80.6742 41.29C80.6742 42.1636 80.8712 42.9248 81.3084 43.5322L82.12 42.9478C81.8373 42.5552 81.6742 42.0164 81.6742 41.29H80.6742ZM81.3222 43.5504C81.7491 44.0896 82.2858 44.5237 82.9245 44.8541L83.3839 43.9659C82.8626 43.6963 82.4393 43.3504 82.1062 42.9296L81.3222 43.5504ZM82.9306 44.8572C83.5484 45.1661 84.2151 45.4531 84.9301 45.7187L85.2783 44.7813C84.5933 44.5269 83.96 44.2539 83.3778 43.9628L82.9306 44.8572ZM84.9421 45.723C85.6259 45.9574 86.3107 46.2313 86.9963 46.5447L87.4121 45.6353C86.6978 45.3087 85.9825 45.0226 85.2664 44.777L84.9421 45.723ZM87.0119 46.5515C87.6879 46.8332 88.2949 47.1979 88.8354 47.6452L89.473 46.8748C88.8535 46.3621 88.1606 45.9468 87.3965 45.6285L87.0119 46.5515ZM88.85 47.6568C89.3802 48.0633 89.8125 48.6076 90.1423 49.304L91.0461 48.876C90.656 48.0524 90.1283 47.3767 89.4584 46.8632L88.85 47.6568ZM90.1423 49.304C90.4601 49.9749 90.6342 50.8746 90.6342 52.03H91.6342C91.6342 50.7854 91.4483 49.7251 91.0461 48.876L90.1423 49.304ZM90.6342 52.03C90.6342 53.3896 90.3754 54.465 89.893 55.2869L90.7554 55.7931C91.353 54.775 91.6342 53.5104 91.6342 52.03H90.6342ZM89.8955 55.2828C89.4077 56.0957 88.7348 56.6972 87.8659 57.0955L88.2825 58.0045C89.3336 57.5228 90.1607 56.7843 90.753 55.7972L89.8955 55.2828ZM87.8623 57.0972C87.0003 57.5006 85.985 57.71 84.8042 57.71V58.71C86.1034 58.71 87.2682 58.4794 88.2862 58.0028L87.8623 57.0972Z" fill="white"/>
</g>
<defs>
<filter id="filter0_d_101_25" x="0" y="0" width="103" height="102" filterUnits="userSpaceOnUse" color-interpolation-filters="sRGB">
<feFlood flood-opacity="0" result="BackgroundImageFix"/>
<feColorMatrix in="SourceAlpha" type="matrix" values="0 0 0 0 0 0 0 0 0 0 0 0 0 0 0 0 0 0 127 0" result="hardAlpha"/>
<feOffset dy="4"/>
<feGaussianBlur stdDeviation="2"/>
<feComposite in2="hardAlpha" operator="out"/>
<feColorMatrix type="matrix" values="0 0 0 0 0 0 0 0 0 0 0 0 0 0 0 0 0 0 0.25 0"/>
<feBlend mode="normal" in2="BackgroundImageFix" result="effect1_dropShadow_101_25"/>
<feBlend mode="normal" in="SourceGraphic" in2="effect1_dropShadow_101_25" result="shape"/>
</filter>
<filter id="filter1_d_101_25" x="0" y="0" width="103" height="102" filterUnits="userSpaceOnUse" color-interpolation-filters="sRGB">
<feFlood flood-opacity="0" result="BackgroundImageFix"/>
<feColorMatrix in="SourceAlpha" type="matrix" values="0 0 0 0 0 0 0 0 0 0 0 0 0 0 0 0 0 0 127 0" result="hardAlpha"/>
<feOffset dy="4"/>
<feGaussianBlur stdDeviation="2"/>
<feComposite in2="hardAlpha" operator="out"/>
<feColorMatrix type="matrix" values="0 0 0 0 0 0 0 0 0 0 0 0 0 0 0 0 0 0 0.25 0"/>
<feBlend mode="normal" in2="BackgroundImageFix" result="effect1_dropShadow_101_25"/>
<feBlend mode="normal" in="SourceGraphic" in2="effect1_dropShadow_101_25" result="shape"/>
</filter>
<linearGradient id="paint0_linear_101_25" x1="97" y1="90.5" x2="2.47516e-07" y2="-23.5" gradientUnits="userSpaceOnUse">
<stop offset="0.102127" stop-color="#9C8300"/>
<stop offset="1" stop-color="#A90F0F" stop-opacity="0.83"/>
</linearGradient>
</defs>
</svg>
